<svg width="24" height="24" viewBox="0 0 24 24" fill="none" xmlns="http://www.w3.org/2000/svg">
<path fill-rule="evenodd" clip-rule="evenodd" d="M11.7981 6.12378C11.498 5.95874 11.1344 5.95874 10.8343 6.12378L3.78952 9.9984C3.61683 10.0934 3.61683 10.3415 3.78952 10.4365L10.8253 14.3062C11.1278 14.4726 11.4948 14.4712 11.796 14.3024L17.0831 11.3403C18.0829 10.7802 19.3162 11.5029 19.3162 12.649V17.2175C19.3162 17.4936 19.5401 17.7175 19.8162 17.7175C20.0923 17.7175 20.3162 17.4936 20.3162 17.2175V11.4C20.3162 11.0353 20.1177 10.6995 19.7981 10.5238L11.7981 6.12378ZM9.87045 4.37135C10.7707 3.87622 11.8617 3.87622 12.762 4.37135L20.762 8.77135C21.7206 9.29861 22.3162 10.3059 22.3162 11.4V17.2175C22.3162 18.5982 21.1969 19.7175 19.8162 19.7175C18.5089 19.7175 17.4359 18.714 17.3256 17.4353L13.7969 19.4517C12.2597 20.33 10.3727 20.33 8.83551 19.4517L4.82779 17.1615C3.89306 16.6274 3.31621 15.6334 3.31621 14.5568V12.4587L2.82569 12.1889C1.27145 11.3341 1.27144 9.10081 2.82569 8.24597L9.87045 4.37135ZM5.31621 13.5587V14.5568C5.31621 14.9157 5.50849 15.247 5.82007 15.4251L9.82779 17.7152C10.7501 18.2422 11.8823 18.2422 12.8046 17.7152L17.3162 15.1371V13.5022L12.7736 16.0472C11.8699 16.5535 10.7691 16.5578 9.86149 16.0586L5.31621 13.5587Z" fill="#121D33"/>
</svg>
