<svg width="24" height="24" viewBox="0 0 24 24" fill="none" xmlns="http://www.w3.org/2000/svg">
<g clip-path="url(#clip0_2848_3556)">
<path fill-rule="evenodd" clip-rule="evenodd" d="M12 24C18.6274 24 24 18.6274 24 12C24 5.37258 18.6274 0 12 0C5.37258 0 0 5.37258 0 12C0 18.6274 5.37258 24 12 24ZM10.3 2.5C10.3 2.77614 10.0762 3 9.80005 3C9.52391 3 9.30005 2.77614 9.30005 2.5C9.30005 2.22386 9.52391 2 9.80005 2C10.0762 2 10.3 2.22386 10.3 2.5ZM14.7 2.5C14.7 2.77614 14.4762 3 14.2 3C13.9239 3 13.7 2.77614 13.7 2.5C13.7 2.22386 13.9239 2 14.2 2C14.4762 2 14.7 2.22386 14.7 2.5ZM6.35 5.4C6.35 5.81421 6.01421 6.15 5.6 6.15C5.18579 6.15 4.85 5.81421 4.85 5.4C4.85 4.98579 5.18579 4.65 5.6 4.65C6.01421 4.65 6.35 4.98579 6.35 5.4ZM10.7833 5.4C10.7833 5.95228 10.3356 6.4 9.78333 6.4C9.23105 6.4 8.78333 5.95228 8.78333 5.4C8.78333 4.84772 9.23105 4.4 9.78333 4.4C10.3356 4.4 10.7833 4.84772 10.7833 5.4ZM15.2167 5.4C15.2167 5.95228 14.769 6.4 14.2167 6.4C13.6644 6.4 13.2167 5.95228 13.2167 5.4C13.2167 4.84772 13.6644 4.4 14.2167 4.4C14.769 4.4 15.2167 4.84772 15.2167 5.4ZM19.15 5.4C19.15 5.81421 18.8142 6.15 18.4 6.15C17.9858 6.15 17.65 5.81421 17.65 5.4C17.65 4.98579 17.9858 4.65 18.4 4.65C18.8142 4.65 19.15 4.98579 19.15 5.4ZM3 9.55C3 9.82614 2.77614 10.05 2.5 10.05C2.22386 10.05 2 9.82614 2 9.55C2 9.27386 2.22386 9.05 2.5 9.05C2.77614 9.05 3 9.27386 3 9.55ZM6.4 9.55C6.4 10.1023 5.95228 10.55 5.4 10.55C4.84772 10.55 4.4 10.1023 4.4 9.55C4.4 8.99771 4.84772 8.55 5.4 8.55C5.95228 8.55 6.4 8.99771 6.4 9.55ZM11.3 9.55C11.3 10.5165 10.5165 11.3 9.55 11.3C8.5835 11.3 7.8 10.5165 7.8 9.55C7.8 8.5835 8.5835 7.8 9.55 7.8C10.5165 7.8 11.3 8.5835 11.3 9.55ZM16.2 9.55C16.2 10.5165 15.4165 11.3 14.45 11.3C13.4835 11.3 12.7 10.5165 12.7 9.55C12.7 8.5835 13.4835 7.8 14.45 7.8C15.4165 7.8 16.2 8.5835 16.2 9.55ZM19.6 9.55C19.6 10.1023 19.1523 10.55 18.6 10.55C18.0477 10.55 17.6 10.1023 17.6 9.55C17.6 8.99771 18.0477 8.55 18.6 8.55C19.1523 8.55 19.6 8.99771 19.6 9.55ZM22 9.55C22 9.82614 21.7761 10.05 21.5 10.05C21.2239 10.05 21 9.82614 21 9.55C21 9.27386 21.2239 9.05 21.5 9.05C21.7761 9.05 22 9.27386 22 9.55ZM3 14.45C3 14.7261 2.77614 14.95 2.5 14.95C2.22386 14.95 2 14.7261 2 14.45C2 14.1739 2.22386 13.95 2.5 13.95C2.77614 13.95 3 14.1739 3 14.45ZM6.4 14.45C6.4 15.0023 5.95228 15.45 5.4 15.45C4.84772 15.45 4.4 15.0023 4.4 14.45C4.4 13.8977 4.84772 13.45 5.4 13.45C5.95228 13.45 6.4 13.8977 6.4 14.45ZM11.3 14.45C11.3 15.4165 10.5165 16.2 9.55 16.2C8.5835 16.2 7.8 15.4165 7.8 14.45C7.8 13.4835 8.5835 12.7 9.55 12.7C10.5165 12.7 11.3 13.4835 11.3 14.45ZM16.2 14.45C16.2 15.4165 15.4165 16.2 14.45 16.2C13.4835 16.2 12.7 15.4165 12.7 14.45C12.7 13.4835 13.4835 12.7 14.45 12.7C15.4165 12.7 16.2 13.4835 16.2 14.45ZM19.6 14.45C19.6 15.0023 19.1523 15.45 18.6 15.45C18.0477 15.45 17.6 15.0023 17.6 14.45C17.6 13.8977 18.0477 13.45 18.6 13.45C19.1523 13.45 19.6 13.8977 19.6 14.45ZM22 14.45C22 14.7261 21.7761 14.95 21.5 14.95C21.2239 14.95 21 14.7261 21 14.45C21 14.1739 21.2239 13.95 21.5 13.95C21.7761 13.95 22 14.1739 22 14.45ZM6.35 18.6C6.35 19.0142 6.01421 19.35 5.6 19.35C5.18579 19.35 4.85 19.0142 4.85 18.6C4.85 18.1858 5.18579 17.85 5.6 17.85C6.01421 17.85 6.35 18.1858 6.35 18.6ZM10.7833 18.6C10.7833 19.1523 10.3356 19.6 9.78333 19.6C9.23105 19.6 8.78333 19.1523 8.78333 18.6C8.78333 18.0477 9.23105 17.6 9.78333 17.6C10.3356 17.6 10.7833 18.0477 10.7833 18.6ZM15.2167 18.6C15.2167 19.1523 14.769 19.6 14.2167 19.6C13.6644 19.6 13.2167 19.1523 13.2167 18.6C13.2167 18.0477 13.6644 17.6 14.2167 17.6C14.769 17.6 15.2167 18.0477 15.2167 18.6ZM19.15 18.6C19.15 19.0142 18.8142 19.35 18.4 19.35C17.9858 19.35 17.65 19.0142 17.65 18.6C17.65 18.1858 17.9858 17.85 18.4 17.85C18.8142 17.85 19.15 18.1858 19.15 18.6ZM10.3 21.5C10.3 21.7761 10.0761 22 9.8 22C9.52386 22 9.3 21.7761 9.3 21.5C9.3 21.2239 9.52386 21 9.8 21C10.0761 21 10.3 21.2239 10.3 21.5ZM14.7 21.5C14.7 21.7761 14.4761 22 14.2 22C13.9239 22 13.7 21.7761 13.7 21.5C13.7 21.2239 13.9239 21 14.2 21C14.4761 21 14.7 21.2239 14.7 21.5Z" fill="#121D33"/>
</g>
<defs>
<clipPath id="clip0_2848_3556">
<rect width="24" height="24" fill="white"/>
</clipPath>
</defs>
</svg>
